<svg width="859" height="76" viewBox="0 0 859 76" fill="none" xmlns="http://www.w3.org/2000/svg">
<g filter="url(#filter0_dii_3_1082)">
<path d="M35.5939 67.6851C29.281 67.6851 23.8208 66.3237 19.2133 63.6011C14.6357 60.8785 11.0903 57.0189 8.57706 52.0225C6.09378 46.9961 4.85214 41.0572 4.85214 34.2057V34.116C4.85214 27.2645 6.10874 21.3406 8.62194 16.3441C11.1351 11.3476 14.6805 7.48807 19.2581 4.76544C23.8657 2.04281 29.3109 0.681499 35.5939 0.681499C41.8769 0.681499 47.3072 2.04281 51.8848 4.76544C56.4923 7.48807 60.0377 11.3476 62.521 16.3441C65.0342 21.3406 66.2908 27.2645 66.2908 34.116V34.2057C66.2908 41.0572 65.0342 46.9961 62.521 52.0225C60.0377 57.0189 56.5073 60.8785 51.9297 63.6011C47.3521 66.3237 41.9068 67.6851 35.5939 67.6851ZM35.5939 57.6772C39.5133 57.6772 42.8792 56.7198 45.6916 54.8049C48.5339 52.8602 50.7179 50.1376 52.2438 46.6371C53.7697 43.1066 54.5326 38.9628 54.5326 34.2057V34.116C54.5326 29.3289 53.7547 25.1851 52.1989 21.6846C50.6731 18.1542 48.489 15.4465 45.6467 13.5616C42.8044 11.6468 39.4534 10.6894 35.5939 10.6894C31.7643 10.6894 28.4133 11.6468 25.5411 13.5616C22.6988 15.4465 20.4998 18.1392 18.944 21.6397C17.4181 25.1403 16.6552 29.299 16.6552 34.116V34.2057C16.6552 38.9928 17.4181 43.1515 18.944 46.6819C20.4998 50.1825 22.6988 52.8901 25.5411 54.8049C28.3834 56.7198 31.7343 57.6772 35.5939 57.6772ZM98.2891 67.6851C93.3226 67.6851 88.9843 66.9371 85.2744 65.4411C81.5644 63.9452 78.6324 61.806 76.4782 59.0235C74.3539 56.241 73.1572 52.92 72.8879 49.0605L72.843 48.3873H83.8831L83.9729 48.9259C84.302 50.7808 85.1098 52.3815 86.3963 53.7279C87.6828 55.0742 89.3733 56.1214 91.4676 56.8693C93.5918 57.5874 96.0003 57.9464 98.693 57.9464C101.416 57.9464 103.764 57.5724 105.739 56.8245C107.744 56.0765 109.284 55.0144 110.361 53.6381C111.439 52.2319 111.977 50.6013 111.977 48.7463V48.7015C111.977 46.278 111.065 44.3632 109.239 42.957C107.444 41.5508 104.452 40.3989 100.264 39.5014L93.3076 38.0653C86.9648 36.7488 82.2077 34.5947 79.0363 31.6028C75.8648 28.5809 74.2791 24.6616 74.2791 19.8446V19.7997C74.3091 15.9701 75.3413 12.6341 77.3758 9.79183C79.4402 6.91961 82.2825 4.69064 85.9027 3.10494C89.5229 1.48931 93.6517 0.681499 98.2891 0.681499C102.986 0.681499 107.1 1.45939 110.631 3.01518C114.161 4.57097 116.929 6.74009 118.933 9.52256C120.968 12.305 122.09 15.5363 122.299 19.2163L122.344 19.9792H111.304L111.214 19.3958C110.945 17.5109 110.242 15.9103 109.105 14.5938C107.968 13.2475 106.472 12.2153 104.617 11.4972C102.762 10.7792 100.623 10.4201 98.1994 10.4201C95.6862 10.4201 93.5021 10.7941 91.6471 11.5421C89.8221 12.2601 88.4009 13.2774 87.3837 14.5938C86.3963 15.9103 85.9027 17.4361 85.9027 19.1714V19.2163C85.9027 21.4902 86.8152 23.3451 88.6403 24.7812C90.4952 26.1874 93.3675 27.2944 97.2569 28.1022L104.213 29.5384C108.731 30.4658 112.411 31.7224 115.253 33.3081C118.095 34.8939 120.19 36.8835 121.536 39.277C122.912 41.6705 123.601 44.5427 123.601 47.8937V47.9385C123.601 51.9477 122.583 55.4332 120.549 58.3952C118.544 61.3572 115.642 63.646 111.842 65.2616C108.073 66.8772 103.555 67.6851 98.2891 67.6851ZM155.016 67.6851C150.049 67.6851 145.711 66.9371 142.001 65.4411C138.291 63.9452 135.359 61.806 133.205 59.0235C131.08 56.241 129.884 52.92 129.614 49.0605L129.569 48.3873H140.61L140.699 48.9259C141.028 50.7808 141.836 52.3815 143.123 53.7279C144.409 55.0742 146.1 56.1214 148.194 56.8693C150.318 57.5874 152.727 57.9464 155.419 57.9464C158.142 57.9464 160.491 57.5724 162.465 56.8245C164.47 56.0765 166.011 55.0144 167.088 53.6381C168.165 52.2319 168.703 50.6013 168.703 48.7463V48.7015C168.703 46.278 167.791 44.3632 165.966 42.957C164.171 41.5508 161.179 40.3989 156.99 39.5014L150.034 38.0653C143.691 36.7488 138.934 34.5947 135.763 31.6028C132.591 28.5809 131.006 24.6616 131.006 19.8446V19.7997C131.035 15.9701 132.068 12.6341 134.102 9.79183C136.167 6.91961 139.009 4.69064 142.629 3.10494C146.249 1.48931 150.378 0.681499 155.016 0.681499C159.713 0.681499 163.827 1.45939 167.357 3.01518C170.888 4.57097 173.655 6.74009 175.66 9.52256C177.694 12.305 178.816 15.5363 179.025 19.2163L179.07 19.9792H168.03L167.941 19.3958C167.671 17.5109 166.968 15.9103 165.831 14.5938C164.694 13.2475 163.198 12.2153 161.343 11.4972C159.488 10.7792 157.349 10.4201 154.926 10.4201C152.413 10.4201 150.228 10.7941 148.373 11.5421C146.548 12.2601 145.127 13.2774 144.11 14.5938C143.123 15.9103 142.629 17.4361 142.629 19.1714V19.2163C142.629 21.4902 143.542 23.3451 145.367 24.7812C147.222 26.1874 150.094 27.2944 153.983 28.1022L160.939 29.5384C165.457 30.4658 169.137 31.7224 171.98 33.3081C174.822 34.8939 176.916 36.8835 178.263 39.277C179.639 41.6705 180.327 44.5427 180.327 47.8937V47.9385C180.327 51.9477 179.31 55.4332 177.275 58.3952C175.271 61.3572 172.369 63.646 168.569 65.2616C164.799 66.8772 160.281 67.6851 155.016 67.6851ZM217.531 67.6851C211.218 67.6851 205.758 66.3237 201.151 63.6011C196.573 60.8785 193.028 57.0189 190.514 52.0225C188.031 46.9961 186.789 41.0572 186.789 34.2057V34.116C186.789 27.2645 188.046 21.3406 190.559 16.3441C193.072 11.3476 196.618 7.48807 201.195 4.76544C205.803 2.04281 211.248 0.681499 217.531 0.681499C223.814 0.681499 229.244 2.04281 233.822 4.76544C238.43 7.48807 241.975 11.3476 244.458 16.3441C246.971 21.3406 248.228 27.2645 248.228 34.116V34.2057C248.228 41.0572 246.971 46.9961 244.458 52.0225C241.975 57.0189 238.445 60.8785 233.867 63.6011C229.289 66.3237 223.844 67.6851 217.531 67.6851ZM217.531 57.6772C221.451 57.6772 224.816 56.7198 227.629 54.8049C230.471 52.8602 232.655 50.1376 234.181 46.6371C235.707 43.1066 236.47 38.9628 236.47 34.2057V34.116C236.47 29.3289 235.692 25.1851 234.136 21.6846C232.61 18.1542 230.426 15.4465 227.584 13.5616C224.742 11.6468 221.391 10.6894 217.531 10.6894C213.702 10.6894 210.351 11.6468 207.478 13.5616C204.636 15.4465 202.437 18.1392 200.881 21.6397C199.355 25.1403 198.592 29.299 198.592 34.116V34.2057C198.592 38.9928 199.355 43.1515 200.881 46.6819C202.437 50.1825 204.636 52.8901 207.478 54.8049C210.321 56.7198 213.672 57.6772 217.531 57.6772ZM257.473 66.5631V1.80346H270.847L290.683 51.3044H290.997L310.834 1.80346H324.207V66.5631H313.796V20.4729H308.455L320.258 3.5986L294.767 66.5631H286.913L261.422 3.5986L273.225 20.4729H267.885V66.5631H257.473ZM335.651 66.5631V1.80346H377.568V11.5421H347.23V28.9998H375.907V38.3345H347.23V56.8245H377.568V66.5631H335.651ZM406.111 66.5631V1.80346H417.689V28.7305H449.194V1.80346H460.728V66.5631H449.194V38.4692H417.689V66.5631H406.111ZM467.684 66.5631L490.841 1.80346H500.58V13.3372H497.214L479.801 66.5631H467.684ZM479.397 49.8234L482.494 40.8926H512.158L515.255 49.8234H479.397ZM514.851 66.5631L497.438 13.3372V1.80346H503.856L526.968 66.5631H514.851ZM559.505 67.6851C553.312 67.6851 547.927 66.3237 543.349 63.6011C538.801 60.8785 535.286 57.0189 532.803 52.0225C530.349 46.9961 529.122 41.0422 529.122 34.1608V34.116C529.122 27.2346 530.364 21.2957 532.847 16.2992C535.331 11.3027 538.846 7.45815 543.394 4.76544C547.942 2.04281 553.312 0.681499 559.505 0.681499C564.472 0.681499 568.915 1.63891 572.834 3.55372C576.783 5.46854 580 8.11637 582.483 11.4972C584.966 14.8781 586.492 18.7675 587.061 23.1656L587.105 23.6144H575.751L575.527 22.7617C574.899 20.2784 573.866 18.1392 572.43 16.3441C570.994 14.5489 569.184 13.1577 567 12.1704C564.816 11.1831 562.318 10.6894 559.505 10.6894C555.735 10.6894 552.459 11.6468 549.677 13.5616C546.894 15.4764 544.74 18.1841 543.214 21.6846C541.688 25.1552 540.926 29.299 540.926 34.116V34.1608C540.926 38.9479 541.688 43.1066 543.214 46.6371C544.74 50.1376 546.894 52.8602 549.677 54.8049C552.489 56.7198 555.765 57.6772 559.505 57.6772C562.258 57.6772 564.711 57.1985 566.865 56.241C569.049 55.2537 570.889 53.8326 572.385 51.9776C573.881 50.1226 574.973 47.8637 575.661 45.2009L575.796 44.7522H587.15L587.061 45.2458C586.522 49.6439 585.011 53.5334 582.528 56.9142C580.045 60.2951 576.828 62.9429 572.879 64.8577C568.93 66.7426 564.472 67.6851 559.505 67.6851ZM606.897 46.4127V32.2311H607.794L632.926 1.80346H646.166L621.662 31.0642H619.867L606.897 46.4127ZM595.947 66.5631V1.80346H607.525V66.5631H595.947ZM634.048 66.5631L612.282 35.8213L620.585 28.1022L648.095 66.5631H634.048ZM676.683 67.6851C671.716 67.6851 667.378 66.9371 663.668 65.4411C659.958 63.9452 657.026 61.806 654.872 59.0235C652.748 56.241 651.551 52.92 651.282 49.0605L651.237 48.3873H662.277L662.367 48.9259C662.696 50.7808 663.504 52.3815 664.79 53.7279C666.077 55.0742 667.767 56.1214 669.861 56.8693C671.986 57.5874 674.394 57.9464 677.087 57.9464C679.809 57.9464 682.158 57.5724 684.133 56.8245C686.137 56.0765 687.678 55.0144 688.755 53.6381C689.832 52.2319 690.371 50.6013 690.371 48.7463V48.7015C690.371 46.278 689.458 44.3632 687.633 42.957C685.838 41.5508 682.846 40.3989 678.658 39.5014L671.701 38.0653C665.359 36.7488 660.601 34.5947 657.43 31.6028C654.259 28.5809 652.673 24.6616 652.673 19.8446V19.7997C652.703 15.9701 653.735 12.6341 655.77 9.79183C657.834 6.91961 660.676 4.69064 664.296 3.10494C667.917 1.48931 672.045 0.681499 676.683 0.681499C681.38 0.681499 685.494 1.45939 689.024 3.01518C692.555 4.57097 695.322 6.74009 697.327 9.52256C699.361 12.305 700.483 15.5363 700.693 19.2163L700.738 19.9792H689.698L689.608 19.3958C689.339 17.5109 688.636 15.9103 687.499 14.5938C686.362 13.2475 684.866 12.2153 683.011 11.4972C681.156 10.7792 679.017 10.4201 676.593 10.4201C674.08 10.4201 671.896 10.7941 670.041 11.5421C668.216 12.2601 666.795 13.2774 665.777 14.5938C664.79 15.9103 664.296 17.4361 664.296 19.1714V19.2163C664.296 21.4902 665.209 23.3451 667.034 24.7812C668.889 26.1874 671.761 27.2944 675.651 28.1022L682.607 29.5384C687.125 30.4658 690.805 31.7224 693.647 33.3081C696.489 34.8939 698.584 36.8835 699.93 39.277C701.306 41.6705 701.994 44.5427 701.994 47.8937V47.9385C701.994 51.9477 700.977 55.4332 698.943 58.3952C696.938 61.3572 694.036 63.646 690.236 65.2616C686.466 66.8772 681.949 67.6851 676.683 67.6851ZM751.495 67.6851C746.768 67.6851 742.639 66.8922 739.109 65.3065C735.578 63.7208 732.781 61.5517 730.717 58.7991C728.682 56.0167 727.5 52.8303 727.171 49.24L727.126 48.6566H738.166L738.256 49.1502C738.466 50.9155 739.139 52.4862 740.276 53.8625C741.413 55.2088 742.938 56.271 744.853 57.0489C746.768 57.8268 748.982 58.2157 751.495 58.2157C754.008 58.2157 756.193 57.7968 758.048 56.9591C759.932 56.0915 761.383 54.9097 762.401 53.4137C763.448 51.9178 763.971 50.1825 763.971 48.2078V48.118C763.971 44.7073 762.79 42.0894 760.426 40.2643C758.092 38.4393 754.846 37.5267 750.687 37.5267H743.013V28.9101H750.418C752.812 28.9101 754.891 28.4912 756.656 27.6535C758.451 26.8157 759.843 25.6788 760.83 24.2427C761.847 22.7767 762.356 21.1012 762.356 19.2163V19.1266C762.356 17.1519 761.922 15.4914 761.054 14.145C760.187 12.7688 758.93 11.7216 757.285 11.0035C755.669 10.2556 753.709 9.88159 751.406 9.88159C749.132 9.88159 747.112 10.2556 745.347 11.0035C743.612 11.7515 742.22 12.8136 741.173 14.1899C740.126 15.5363 739.498 17.1369 739.288 18.9919L739.243 19.4407H728.517L728.562 18.9022C728.891 15.252 730.028 12.0657 731.973 9.34304C733.948 6.62042 736.596 4.49617 739.917 2.9703C743.238 1.44443 747.067 0.681499 751.406 0.681499C755.863 0.681499 759.738 1.39955 763.029 2.83567C766.35 4.24186 768.908 6.21651 770.703 8.75962C772.528 11.2728 773.441 14.2198 773.441 17.6007V17.6904C773.441 20.3532 772.842 22.7168 771.646 24.7812C770.449 26.8157 768.818 28.5062 766.754 29.8525C764.719 31.1989 762.416 32.1413 759.843 32.6798V32.9042C764.63 33.353 768.474 34.9387 771.376 37.6614C774.279 40.3541 775.73 43.9443 775.73 48.4322V48.5219C775.73 52.2618 774.697 55.5828 772.633 58.485C770.599 61.3572 767.771 63.6161 764.151 65.2616C760.531 66.8772 756.312 67.6851 751.495 67.6851ZM789.822 67.2812C787.996 67.2812 786.456 66.6529 785.199 65.3963C783.942 64.1397 783.314 62.6138 783.314 60.8187C783.314 58.9936 783.942 57.4528 785.199 56.1962C786.456 54.9396 787.996 54.3113 789.822 54.3113C791.617 54.3113 793.143 54.9396 794.399 56.1962C795.656 57.4528 796.284 58.9936 796.284 60.8187C796.284 62.6138 795.656 64.1397 794.399 65.3963C793.143 66.6529 791.617 67.2812 789.822 67.2812ZM828.956 67.6851C823.66 67.6851 819.112 66.3237 815.312 63.6011C811.513 60.8785 808.596 57.0189 806.561 52.0225C804.527 46.9961 803.509 41.0572 803.509 34.2057V34.116C803.509 27.2645 804.527 21.3406 806.561 16.3441C808.596 11.3177 811.513 7.45815 815.312 4.76544C819.112 2.04281 823.66 0.681499 828.956 0.681499C834.221 0.681499 838.754 2.04281 842.554 4.76544C846.383 7.45815 849.315 11.3177 851.35 16.3441C853.384 21.3406 854.402 27.2645 854.402 34.116V34.2057C854.402 41.0572 853.384 46.9961 851.35 52.0225C849.315 57.0189 846.383 60.8785 842.554 63.6011C838.754 66.3237 834.221 67.6851 828.956 67.6851ZM828.956 58.2157C831.858 58.2157 834.341 57.2583 836.405 55.3435C838.47 53.4287 840.041 50.6761 841.118 47.0858C842.195 43.4956 842.733 39.2022 842.733 34.2057V34.116C842.733 29.1195 842.195 24.8411 841.118 21.2807C840.041 17.6904 838.47 14.9529 836.405 13.068C834.341 11.1531 831.858 10.1957 828.956 10.1957C826.023 10.1957 823.525 11.1531 821.461 13.068C819.426 14.9529 817.871 17.6904 816.793 21.2807C815.716 24.8411 815.178 29.1195 815.178 34.116V34.2057C815.178 39.2022 815.716 43.4956 816.793 47.0858C817.871 50.6761 819.426 53.4287 821.461 55.3435C823.525 57.2583 826.023 58.2157 828.956 58.2157Z" fill="white" fill-opacity="0.2" style="mix-blend-mode:overlay" shape-rendering="crispEdges"/>
</g>
<defs>
<filter id="filter0_dii_3_1082" x="0.852142" y="-0.318497" width="857.549" height="76.0036" filterUnits="userSpaceOnUse" color-interpolation-filters="sRGB">
<feFlood flood-opacity="0" result="BackgroundImageFix"/>
<feColorMatrix in="SourceAlpha" type="matrix" values="0 0 0 0 0 0 0 0 0 0 0 0 0 0 0 0 0 0 127 0" result="hardAlpha"/>
<feOffset dy="4"/>
<feGaussianBlur stdDeviation="2"/>
<feComposite in2="hardAlpha" operator="out"/>
<feColorMatrix type="matrix" values="0 0 0 0 0 0 0 0 0 0 0 0 0 0 0 0 0 0 0.25 0"/>
<feBlend mode="normal" in2="BackgroundImageFix" result="effect1_dropShadow_3_1082"/>
<feBlend mode="normal" in="SourceGraphic" in2="effect1_dropShadow_3_1082" result="shape"/>
<feColorMatrix in="SourceAlpha" type="matrix" values="0 0 0 0 0 0 0 0 0 0 0 0 0 0 0 0 0 0 127 0" result="hardAlpha"/>
<feOffset dx="1" dy="1"/>
<feGaussianBlur stdDeviation="1"/>
<feComposite in2="hardAlpha" operator="arithmetic" k2="-1" k3="1"/>
<feColorMatrix type="matrix" values="0 0 0 0 1 0 0 0 0 1 0 0 0 0 1 0 0 0 0.25 0"/>
<feBlend mode="plus-lighter" in2="shape" result="effect2_innerShadow_3_1082"/>
<feColorMatrix in="SourceAlpha" type="matrix" values="0 0 0 0 0 0 0 0 0 0 0 0 0 0 0 0 0 0 127 0" result="hardAlpha"/>
<feOffset dx="-1" dy="-1"/>
<feGaussianBlur stdDeviation="1"/>
<feComposite in2="hardAlpha" operator="arithmetic" k2="-1" k3="1"/>
<feColorMatrix type="matrix" values="0 0 0 0 1 0 0 0 0 1 0 0 0 0 1 0 0 0 0.25 0"/>
<feBlend mode="soft-light" in2="effect2_innerShadow_3_1082" result="effect3_innerShadow_3_1082"/>
</filter>
</defs>
</svg>
