<svg xmlns="http://www.w3.org/2000/svg" fill="none" aria-label="Atlassian's logo" class="undefined undefined" style="--height-mobile:22px;--height-desktop:30px" viewBox="0 0 195 32"><path fill="currentColor" d="M121.211 17.946c0-3.403-1.827-5.015-6.914-6.125-2.83-.61-3.51-1.254-3.51-2.15 0-1.11 1.003-1.611 2.865-1.611 2.257 0 4.478.68 6.591 1.647V5.23c-1.468-.752-3.761-1.326-6.447-1.326-5.051 0-7.666 2.186-7.666 5.803 0 2.866 1.325 5.159 6.555 6.162 3.117.644 3.761 1.146 3.761 2.185 0 1.003-.644 1.648-2.865 1.648-2.544 0-5.588-.86-7.559-2.042v4.692c1.577.788 3.654 1.648 7.523 1.648 5.516 0 7.666-2.436 7.666-6.054m55.128-13.755v19.522h4.155V8.812l1.755 3.976 5.875 10.925h5.23V4.191h-4.155V16.8l-1.577-3.654-4.728-8.955zm-26.436 0h-4.549v19.487h4.549zm-9.779 13.755c0-3.403-1.827-5.015-6.913-6.125-2.83-.61-3.511-1.254-3.511-2.15 0-1.11 1.003-1.611 2.866-1.611 2.256 0 4.477.68 6.591 1.647V5.23c-1.469-.752-3.761-1.326-6.448-1.326-5.051 0-7.666 2.186-7.666 5.803 0 2.866 1.326 5.159 6.556 6.162 3.116.644 3.761 1.146 3.761 2.185 0 1.003-.645 1.648-2.866 1.648-2.543 0-5.588-.86-7.558-2.042v4.692c1.576.788 3.654 1.648 7.522 1.648 5.517 0 7.666-2.436 7.666-6.054M70.882 4.191v19.522h9.35l1.468-4.226h-6.233V4.19zm-18.412 0v4.227h5.015v15.295h4.585V8.418h5.41V4.19zm-6.627 0h-5.982l-6.806 19.487h5.194l.967-3.296c1.147.322 2.365.537 3.654.537q1.881 0 3.654-.537l.967 3.296h5.194zm-3.009 12.716a9.6 9.6 0 0 1-2.507-.358l2.507-8.525 2.508 8.525a9.6 9.6 0 0 1-2.508.358M96.315 4.191h-5.982l-6.806 19.487h5.194l.967-3.296c1.146.322 2.364.537 3.654.537q1.88 0 3.654-.537l.967 3.296h5.194zm-2.973 12.716c-.86 0-1.72-.143-2.508-.358l2.508-8.525 2.507 8.525c-.824.215-1.648.358-2.507.358m72.931-12.716h-5.982l-6.806 19.487h5.194l.967-3.296c1.147.322 2.364.537 3.654.537q1.881 0 3.654-.537l.967 3.296h5.194zm-3.009 12.716a9.6 9.6 0 0 1-2.507-.358l2.507-8.525 2.508 8.525a9.4 9.4 0 0 1-2.508.358M6.834 11.069c-.107-.144-.322-.215-.501-.215a.57.57 0 0 0-.358.286L.065 22.961a.484.484 0 0 0 .214.68.5.5 0 0 0 .215.072h8.239c.179 0 .394-.107.466-.286 1.755-3.582.68-9.134-2.365-12.358m16.872 11.892C23.563 22.746 12.637.824 12.351.287 12.279.107 12.136 0 11.957 0h-.036a.56.56 0 0 0-.466.287C8.482 4.979 8.16 10.675 10.56 15.475l3.976 7.916c.072.18.25.287.466.287h8.238a.49.49 0 0 0 .502-.502c0-.071 0-.143-.036-.215"/></svg>