<svg xmlns="http://www.w3.org/2000/svg" aria-label="Figma's logo" class="undefined SponsorsItem_SponsorsItemImage--gold__inAF2" style="--height-mobile:32px;--height-desktop:32px" viewBox="0 0 195.8 72.6"><path fill="currentColor" d="M191.9 19.3c-2.6-2.5-6.3-3.7-11.1-3.7s-6.3.6-8.8 1.7-4.4 2.8-5.9 4.9-2.4 4.6-2.6 7.5l7.2 1c.3-2.8 1.2-5 2.9-6.5s4-2.3 7.1-2.3 4.3.6 5.7 1.7 2.1 2.6 2.1 4.6-.4 2.8-1.1 3.6q-1.05 1.2-3.9 1.8l-9.6 2c-3.7.7-6.5 2-8.5 3.9s-3 4.4-3 7.5.6 4.4 1.8 6.2c1.3 1.8 2.9 3.1 5 4.2 2.1 1 4.5 1.6 7.2 1.6s5.7-.6 7.8-1.9c2.2-1.3 3.6-2.9 4.4-4.7v5.3h7.2v-29c0-3.9-1.3-7.1-3.9-9.5zM187 48q-1.35 2.25-3.9 3.6c-1.6.9-3.5 1.3-5.4 1.3s-4.3-.5-5.8-1.6c-1.4-1.1-2.1-2.5-2.1-4.3s.5-3.1 1.5-4.1 2.5-1.7 4.4-2l12.8-2.7v4.5q0 3-1.5 5.4zm-44.5-32.4c-2.4 0-4.6.6-6.6 1.7q-2.85 1.65-3.9 4.5c-.6-2.1-1.9-3.6-3.9-4.7-2-1-4.2-1.6-6.7-1.6s-4.6.6-6.5 1.7-3.1 2.5-3.6 4.1v-4.6h-7.2v40.9h7.3V32.3c0-3.3.7-5.8 2-7.5 1.4-1.8 3.3-2.6 5.8-2.6s3.9.7 5.1 2.1 1.8 3.4 1.8 6.2v27.1h7.3V32.3c0-3.3.7-5.8 2-7.5 1.4-1.8 3.3-2.6 5.8-2.6s3.9.7 5.1 2.1 1.8 3.4 1.8 6.2v27.1h7.3V29.5q0-6.9-3.3-10.5c-2.2-2.4-5.4-3.6-9.5-3.6zM87.2 22c-.8-1.8-2.4-3.3-4.7-4.5-2.2-1.3-4.7-1.9-7.5-1.9s-6.9.8-9.6 2.5c-2.7 1.6-4.8 4-6.3 7s-2.3 6.5-2.3 10.5.8 7.4 2.3 10.4 3.7 5.4 6.4 7.1c2.7 1.6 5.9 2.5 9.5 2.5s5.2-.6 7.4-1.9 3.8-2.9 4.6-4.9v6.5c0 3.6-.9 6.3-2.8 8.1-1.8 1.9-4.5 2.8-8.1 2.8s-5.5-.8-7.5-2.3-3.3-3.6-3.9-6.2l-7.2 1.6c.9 4.2 2.9 7.5 6.1 9.8 3.2 2.4 7.3 3.5 12.4 3.5s7.2-.7 9.9-2.1 4.8-3.4 6.2-6q2.1-3.9 2.1-9.3V16.8H87V22zm-2.8 23.4c-2.1 2.5-4.9 3.7-8.4 3.7s-6.2-1.2-8.4-3.7c-2.1-2.5-3.2-5.7-3.2-9.8s1-7.4 3.1-9.8c2.1-2.5 5-3.7 8.5-3.7s6.2 1.2 8.4 3.7c2.1 2.5 3.2 5.7 3.2 9.8s-1.1 7.3-3.2 9.8M42 23.3v34.5h7.4V16.9H42zM42 0h7.5v11.6H42zM1.6 0H0v57.8h7.7V33.3h25.4v-6.9H7.7V7h28.4V0z"/></svg>