<svg xmlns="http://www.w3.org/2000/svg" fill="none" aria-label="Faros's logo" class="undefined SponsorsItem_SponsorsItemImage--gold__inAF2" style="--height-mobile:40px;--height-desktop:44px" viewBox="0 0 70 44"><g fill="currentColor"><path d="M.117 34.62c-.195-.378-.146-.72.147-.916.416-.294 68.142-.294 68.557 0 .294.195.343.538.147.917-.134.232-.648.232-34.425.232s-34.291 0-34.426-.232zm45.921-2.898c-1.492-.366-2.678-1.394-3.485-3.008-.88-1.785-.868-1.675-.832-13.195l.037-10.2.293-.856C43.115 1.26 45.084-.135 48.264.036c1.076.062 1.37.123 2.177.502a5.37 5.37 0 0 1 2.605 2.544c.868 1.76.807.88.843 12.473.05 11.667.062 11.484-.77 13.171-.795 1.602-2.25 2.776-3.828 3.07-.905.171-2.372.134-3.253-.074m2.679-4.561c.097-.086.28-.416.403-.722.208-.538.22-1.235.22-10.602V5.809l-.281-.514c-.318-.611-.575-.77-1.21-.77-.6 0-.98.269-1.273.905-.22.477-.232.99-.232 10.529 0 9.624.012 10.052.245 10.542.305.697.831 1.015 1.467.892.27-.049.563-.159.66-.232zm11.569 4.635c-1.847-.33-3.167-1.321-4.023-3.033-.392-.758-.71-2.19-.88-3.901-.209-2.067-.233-2.03 1.748-2.214 1.895-.183 2.36-.183 2.52.012.072.086.158.587.207 1.126.147 1.92.611 3.253 1.26 3.68.391.257 1.271.257 1.675 0 .722-.476 1.113-1.748 1.015-3.338-.098-1.516-.624-2.58-3.363-6.665-1.296-1.944-2.63-4.06-2.96-4.72-.721-1.444-1.332-3.29-1.48-4.525-.22-1.688.245-4.097 1.052-5.467.429-.733 1.358-1.65 2.08-2.042 2.262-1.223 5.613-.82 7.227.868 1.052 1.089 1.81 3.168 1.957 5.332.06.917.036 1.125-.123 1.272-.11.086-.746.208-1.455.27-.697.048-1.54.134-1.871.183-.82.097-.978-.098-1.088-1.297-.123-1.272-.38-2.128-.82-2.629-.33-.367-.452-.428-.93-.428-1.026 0-1.503.893-1.503 2.813 0 1.797.367 2.58 3.375 7.044 3.803 5.686 4.561 7.508 4.415 10.737-.074 1.822-.306 2.825-.905 4.023-.758 1.517-2.25 2.63-3.89 2.899-.843.134-2.445.134-3.24 0M.754 31.405C.546 31.197.534.734.754.514.987.28 11.161.306 11.357.538c.098.11.135.807.11 2.226-.037 2.054-.037 2.054-.342 2.213-.22.11-1.089.16-3.082.16H5.255v8.927h1.932c1.345 0 1.981.049 2.079.146.098.098.147.77.147 2.19 0 2.592.159 2.433-2.348 2.433h-1.81l-.013 6.029c-.012 3.302-.048 6.151-.097 6.323l-.086.305-2.079.037c-1.504.024-2.116-.012-2.226-.122m26.426.061c-.208-.074-.232-30.488-.036-30.867.122-.22.293-.232 3.008-.232 2.52 0 3.008.036 3.877.257 2.947.745 4.573 2.714 5.16 6.224.257 1.541.196 4.99-.11 6.213-.305 1.186-.966 2.507-1.602 3.192l-.574.611.39 1.993c.209 1.101.466 2.385.563 2.85.82 3.803 1.835 9.33 1.761 9.539-.085.232-.22.244-2.176.28-1.92.025-2.104.013-2.214-.195-.061-.122-.257-1.04-.428-2.054-.171-1.003-.624-3.584-.99-5.736-.367-2.152-.746-4.317-.82-4.794l-.146-.892h-1.297v6.701c0 5.05-.037 6.738-.147 6.848-.146.147-3.876.208-4.219.062m6.25-16.999c1.076-.758 1.614-2.593 1.504-5.1-.11-2.58-.746-3.9-2.08-4.292-.342-.098-.77-.183-.965-.183h-.343v10.064l.697-.073c.49-.05.844-.184 1.186-.416zM15.892 43.744c-.342-.172-.477-.722-.232-1.015.208-.257 2.348-.245 2.605.024.342.33.232.758-.257 1.015-.355.184-1.736.171-2.116-.024m1.663-2.238c-.244-.233-.244-.538-.024-.856.159-.196.355-.233 1.602-.27 1.626-.048 2.018.086 2.018.686 0 .574-.16.636-1.847.636-1.26 0-1.602-.037-1.749-.196m-1.224-2.079a.62.62 0 0 1 .073-.954c.196-.134.563-.196 1.223-.196.795 0 .99.037 1.199.245.305.306.318.636.024.893-.318.293-2.238.293-2.519.012m-2.686-2.042c-.135-.098-.22-.319-.22-.514 0-.526.305-.673 1.43-.673s1.444.147 1.444.673-.318.672-1.443.672c-.636 0-1.076-.06-1.211-.158m3.825-.098c-.27-.27-.233-.673.11-.93.244-.195 3.84-.22 4.194-.036.281.159.318.758.037 1.027-.16.159-.526.196-2.14.196-1.798 0-1.97-.025-2.202-.257zm-7.056-5.883c-.085-.085-.146-.269-.146-.415 0-.22.415-3.046 1.418-9.65.098-.672.318-2.103.477-3.179C13.814 7.117 14.83.648 14.94.526c.196-.245 5.271-.22 5.467.012.085.098.22.685.318 1.308.183 1.199.574 3.767 1.1 7.264.171 1.15.392 2.605.49 3.241a3257 3257 0 0 1 2.078 13.758c.673 4.525.722 4.965.587 5.173-.11.184-.403.208-2.14.245l-2.03.024-.061-.513a21 21 0 0 1-.147-1.321 493 493 0 0 0-.367-4.097c-.501-5.662-.501-5.528-.208-5.613.355-.11.453-.465.196-.648-.342-.245-4.855-.22-5.063.024-.195.232-.06.55.257.636.245.073.257.122.184.942-.306 3.387-.942 9.869-1.003 10.199l-.061.391h-1.982c-1.394 0-2.042-.049-2.14-.147zm5.785-13.33c.036-.159.073-.746.085-1.308l.037-1.027.697-.306.71-.306.696.306.71.306.037 1.21c.012.66.085 1.26.146 1.321.184.184.685-.354.979-1.064.55-1.26.134-2.592-1.089-3.448-.465-.33-.623-.367-1.406-.367-.77 0-.966.049-1.48.367-1.468.905-1.834 2.861-.77 4.145.415.514.562.55.648.172zm1.932-.489c.342-.269.391-.77.098-1.064-.318-.318-.673-.33-.99-.012-.135.135-.245.355-.245.49 0 .305.416.733.709.733a.94.94 0 0 0 .428-.147"/><path d="M17.457 29.093c-.159-.086-.22-.281-.22-.71 0-.66.184-.904.636-.843.245.037.281.11.318.685.05.88-.208 1.186-.734.868m0-3.057c-.17-.098-.22-.282-.22-.795 0-.575.037-.685.282-.77.489-.184.697.036.697.782 0 .526-.05.685-.233.795-.281.147-.269.147-.526-.012m-.147-3.229c-.036-.11-.073-.44-.073-.733 0-.636.306-.905.734-.673.22.122.257.232.22.832-.037.684-.049.697-.416.733-.269.025-.403-.024-.464-.159z"/></g></svg>