<svg xmlns="http://www.w3.org/2000/svg" width="610" height="89" fill="currentColor" viewBox="0 0 610 89"><path d="M241.582 86.503 208.49 1.84h20.389l31.765 84.662h-13.93L274.232 1.84h19.695l-29.199 84.662zm61.46 0V1.84h64.742v15.686h-46.885V36.21h41.281v15.135h-41.281v19.017h47.116v16.13h-64.968zm-121.002 0V1.84h17.954v84.662zm-91.449 0V1.84h20.077L166.3 83.45h-15.747V1.84h18.036v84.662h-20.991L92.066 5.176h16.886v81.327h-18.37zM0 55.382V1.842h18.83v52.804c0 10.01 6.464 17.24 20.609 17.24s20.485-7.23 20.485-17.24V1.841h18.83v53.54c0 18.438-11.628 33.09-39.315 33.09S0 73.82 0 55.381M422.086 1.84q9.999.001 16.744 3.255c4.495 2.167 7.833 5.266 9.999 9.292 2.25 4.026 3.37 8.825 3.37 14.4 0 12.331-8.956 21.766-19.613 24.436l23.566 33.279h-21.717l-20.701-30.31h-15.48v30.306h-17.908l-.008.005V1.84zm-23.832 37.787h20.227c11.284 0 14.658-5.355 14.658-11.66q.001-3.601-1.861-6.038c-1.163-1.704-2.832-2.94-5.002-3.717q-3.256-1.278-7.791-1.278h-20.231zm144.99 46.876V1.84h65.723v15.686h-47.596V36.21h41.906v15.135h-41.906v19.017h47.83v16.13h-65.952zm-82.692-25.895h18.262c1.409 9.576 8.569 13.45 19.42 13.45 5.125 0 9.692-.861 12.48-2.582 2.861-1.797 4.296-4.416 4.296-7.858q.001-3.05-1.016-5.045c-.679-1.409-1.809-2.5-3.389-3.286-1.586-.86-3.654-1.565-6.214-2.113-2.488-.549-6.189-1.097-9.879-1.64q-7.69-1.17-13.676-3.05-5.879-1.878-9.832-4.69-3.847-2.935-5.877-7.154c-1.353-2.813-2.031-6.18-2.031-10.085q0-8.211 4.068-14.075 4.18-5.864 11.868-8.912C484.157 1.454 490.833.4 497.839.4c7.007 0 12.62 1.054 17.517 3.168q7.349 3.048 11.417 8.799c2.788 3.83 3.684 7.994 3.912 12.98h-17.926c-1.234-7.148-6.725-11.104-16.092-11.104-3.089 0-6.339.393-8.526 1.173-2.182.78-3.881 1.915-5.084 3.4-1.13 1.484-1.695 3.285-1.695 5.394 0 2.501.643 4.459 1.923 5.863q2.031 1.992 6.442 3.05c3.011.704 7.582 1.408 12.48 2.113q6.668.938 12.318 2.463c3.845 1.017 7.157 2.463 9.946 4.34q4.183 2.814 6.555 7.622c1.586 3.206 2.374 7.272 2.374 12.198 0 5.32-1.358 9.929-4.068 13.839q-4.068 5.865-12.091 9.149c-5.276 2.108-11.832 3.168-19.668 3.168h-.013c-24.869 0-36.194-10.952-37.008-27.407"/></svg>