<svg xmlns="http://www.w3.org/2000/svg" fill="none" aria-label="Arm's logo" class="undefined SponsorsItem_SponsorsItemImage--gold__inAF2" style="--height-mobile:28px;--height-desktop:28px" viewBox="0 0 105 33"><clipPath id="a"><path d="M0 .617h104.965v32H0z"/></clipPath><g clip-path="url(#a)"><path fill="currentColor" d="M23.7 1.46h7.057v30.225H23.7v-3.152c-3.106 3.595-6.879 4.084-9.054 4.084C5.326 32.617 0 24.85 0 16.55 0 6.697 6.746.661 14.735.661c2.22 0 6.125.577 8.965 4.305zM7.19 16.683c0 5.237 3.284 9.631 8.388 9.631 4.439 0 8.566-3.24 8.566-9.542 0-6.613-4.083-9.764-8.566-9.764-5.104 0-8.388 4.305-8.388 9.675M39.101 1.46h7.057v2.707c.799-.932 1.953-1.953 2.93-2.53C50.462.84 51.794.618 53.391.618c1.731 0 3.595.266 5.548 1.42l-2.885 6.391c-1.597-1.02-2.884-1.065-3.595-1.065-1.509 0-3.018.222-4.393 1.642-1.953 2.086-1.953 4.97-1.953 6.968V31.64h-7.057V1.46zm24.366 0h7.057v2.796C72.876 1.371 75.672.661 77.98.661c3.152 0 6.125 1.51 7.812 4.438 2.53-3.595 6.302-4.438 8.965-4.438 3.684 0 6.879 1.731 8.61 4.749.577 1.02 1.598 3.24 1.598 7.634v18.685h-7.057V15.086c0-3.374-.355-4.75-.666-5.37-.443-1.155-1.509-2.664-4.038-2.664-1.731 0-3.24.932-4.172 2.22-1.243 1.73-1.376 4.305-1.376 6.879v15.578h-7.057V15.086c0-3.374-.355-4.75-.666-5.37-.444-1.155-1.509-2.664-4.039-2.664-1.73 0-3.24.932-4.172 2.22-1.242 1.73-1.375 4.305-1.375 6.879v15.578h-6.88z"/></g></svg>