<svg xmlns="http://www.w3.org/2000/svg" fill="none" aria-label="Microsoft's logo" class="undefined undefined" style="--height-mobile:24px;--height-desktop:33px" viewBox="0 0 169 37"><path fill="currentColor" fill-rule="evenodd" d="M17.48 17.723H.374V.617H17.48zm151.52-.82v-2.966h-3.683v-4.61l-.124.038-3.459 1.058-.068.02v3.494h-5.46v-1.946c0-.906.203-1.6.602-2.062.397-.457.964-.69 1.688-.69.52 0 1.058.123 1.6.365l.136.06V6.542l-.064-.023c-.506-.182-1.193-.273-2.046-.273-1.074 0-2.05.233-2.901.697a4.97 4.97 0 0 0-1.991 1.968c-.467.841-.705 1.812-.705 2.887v2.14h-2.564v2.965h2.564v12.494h3.681V16.902h5.46v7.94c0 3.27 1.542 4.926 4.584 4.926.5 0 1.026-.058 1.563-.173.547-.118.919-.235 1.138-.36l.049-.03v-2.993l-.15.1q-.301.2-.74.322a2.8 2.8 0 0 1-.727.124c-.713 0-1.24-.192-1.567-.57-.331-.383-.499-1.052-.499-1.987v-7.299zm-27.26 9.856c-1.336 0-2.389-.444-3.132-1.316-.746-.877-1.125-2.128-1.125-3.717 0-1.639.379-2.922 1.126-3.814.743-.887 1.786-1.337 3.101-1.337 1.277 0 2.293.43 3.021 1.278.731.853 1.102 2.125 1.102 3.784 0 1.678-.349 2.968-1.037 3.83-.684.857-1.712 1.291-3.056 1.291m.164-13.195c-2.549 0-4.574.747-6.017 2.22s-2.174 3.513-2.174 6.061c0 2.42.714 4.367 2.122 5.786s3.325 2.137 5.696 2.137c2.471 0 4.456-.757 5.899-2.25s2.173-3.512 2.173-6.001c0-2.458-.686-4.42-2.039-5.829-1.354-1.41-3.259-2.124-5.66-2.124m-14.127 0c-1.734 0-3.168.444-4.264 1.318-1.102.88-1.661 2.034-1.661 3.43 0 .726.121 1.37.358 1.917a3.86 3.86 0 0 0 1.1 1.437c.488.402 1.24.823 2.238 1.252.838.345 1.463.637 1.861.867.388.225.663.452.819.673.151.216.228.511.228.876 0 1.038-.778 1.544-2.378 1.544-.594 0-1.271-.124-2.013-.369a7.6 7.6 0 0 1-2.061-1.045l-.152-.11V28.9l.056.026c.521.24 1.177.443 1.951.603.773.16 1.475.24 2.084.24 1.882 0 3.397-.445 4.503-1.325 1.113-.885 1.676-2.066 1.676-3.51 0-1.043-.303-1.936-.901-2.657-.595-.715-1.626-1.371-3.065-1.951-1.146-.46-1.88-.842-2.183-1.135-.292-.283-.44-.684-.44-1.19 0-.45.183-.81.559-1.102.378-.293.905-.442 1.566-.442.614 0 1.241.096 1.865.286s1.172.444 1.629.755l.15.103v-3.362l-.058-.025c-.421-.18-.978-.335-1.653-.46a10 10 0 0 0-1.814-.189m-15.522 13.194c-1.335 0-2.389-.443-3.131-1.315-.748-.877-1.125-2.128-1.125-3.717 0-1.639.378-2.922 1.125-3.814.743-.887 1.786-1.337 3.102-1.337 1.276 0 2.292.43 3.02 1.278.731.853 1.103 2.125 1.103 3.784 0 1.678-.35 2.968-1.038 3.83-.684.857-1.711 1.291-3.056 1.291m.164-13.194c-2.549 0-4.574.747-6.017 2.22s-2.175 3.513-2.175 6.061c0 2.421.715 4.367 2.123 5.786s3.325 2.137 5.697 2.137c2.47 0 4.455-.757 5.898-2.25s2.174-3.512 2.174-6.001c0-2.458-.686-4.42-2.04-5.829-1.354-1.41-3.259-2.124-5.66-2.124m-13.78 3.05v-2.677h-3.636v15.458h3.637v-7.907c0-1.345.305-2.45.906-3.284.594-.824 1.385-1.242 2.352-1.242.327 0 .695.054 1.093.16.394.107.68.222.848.344l.153.11V13.91l-.059-.025c-.339-.144-.818-.216-1.424-.216-.914 0-1.731.293-2.432.871-.615.508-1.059 1.205-1.399 2.074zm-10.148-3.05c-1.668 0-3.156.358-4.422 1.063a7.16 7.16 0 0 0-2.916 3c-.664 1.28-1.002 2.774-1.002 4.442 0 1.46.327 2.8.974 3.982a6.84 6.84 0 0 0 2.72 2.751c1.158.641 2.495.967 3.976.967 1.728 0 3.204-.346 4.387-1.027l.047-.028v-3.331l-.152.111a6.8 6.8 0 0 1-1.78.927c-.642.224-1.228.337-1.742.337-1.427 0-2.572-.446-3.404-1.326-.833-.882-1.255-2.12-1.255-3.676 0-1.568.44-2.837 1.309-3.774.865-.933 2.013-1.407 3.41-1.407 1.195 0 2.36.405 3.462 1.204l.152.11v-3.51l-.049-.027c-.414-.232-.98-.424-1.682-.57-.7-.145-1.383-.218-2.033-.218m-10.844.373H74.01v15.458h3.636zm-1.781-6.585a2.2 2.2 0 0 0-1.55.607c-.43.405-.648.915-.648 1.516 0 .592.215 1.093.642 1.487.424.393.947.592 1.556.592s1.134-.199 1.563-.591a1.94 1.94 0 0 0 .65-1.488c0-.58-.212-1.085-.632-1.5-.42-.414-.952-.623-1.581-.623m-9.073 5.444v16.6h3.711V7.824h-5.136l-6.529 16.022-6.335-16.022H47.16v21.57h3.487v-16.6h.12l6.69 16.6h2.632l6.585-16.598zm-47.532 4.927h17.106V.617H19.261zM17.48 36.617H.374V19.51H17.48zm1.781 0h17.106V19.51H19.261z" clip-rule="evenodd"/></svg>