<svg xmlns="http://www.w3.org/2000/svg" fill="none" aria-label="Crowdbotics's logo" class="undefined SponsorsItem_SponsorsItemImage--gold__inAF2" style="--height-mobile:30px;--height-desktop:32px" viewBox="0 0 288 59"><path fill="currentColor" d="M100.39 36.9v1.45c0 4.27-.71 10.25-8.6 10.25-6.91 0-8.38-4.32-8.38-10.01V19.78c0-5.76 2.61-9.58 8.47-9.58 7 0 8.34 4.64 8.34 9.81v1.67h-5.77v-2.35c0-2.48-.58-3.89-2.58-3.89-1.97 0-2.6 1.36-2.6 3.91v19.73c0 2.43.48 4.33 2.67 4.33 2.08 0 2.63-1.64 2.63-4.42V36.9zm3.08-7.96c0-4.8.05-6.85-.06-9.8h5.45c.06.56.16 3.13.16 4.68 1.15-3.91 3.69-5.1 6.37-5.11v7.09c-3.3.01-6.18.84-6.18 6.77v15.49h-5.76V28.94zm31.13-.92v11.11c0 6.19-3.08 9.37-8.53 9.37-5.63 0-8.41-3.25-8.41-9.34V27.78c0-6.26 3.56-9.09 8.58-9.09 5.23.01 8.36 3.22 8.36 9.33m-11.18-.33v11.68c0 2.34.71 4.04 2.76 4.04 1.92 0 2.67-1.42 2.67-4.14V27.64c0-2.23-.6-3.85-2.71-3.85-1.89 0-2.72 1.35-2.72 3.9m19.3-8.55c1.77 14 2.13 17.49 2.37 20.82h.06c.35-3.6 1.36-8.3 3.3-20.82h5.32c2.02 12.88 2.94 17.28 3.23 20.86h.06c.28-3.09.45-5.93 2.43-20.86h5.76l-5.49 28.91h-5.58c-1.34-8.34-2.76-15.08-3.22-19.36h-.06c-.34 3.96-1.74 10.42-3.39 19.36h-5.67l-5.22-28.91zm41.54-10.02v30.92c0 4.4 0 6.45.06 8.02h-5.5c-.11-.73-.21-2.29-.21-2.75-.9 1.87-2.28 3.2-5.1 3.2-5.19 0-6.2-4.15-6.2-9.75V27.44c0-5.03 1.92-8.74 6.64-8.74 1.93 0 3.76.57 4.55 2.04V9.12zm-11.18 18.67v11.43c0 2.67.63 4.12 2.62 4.12 2.35 0 2.81-2.11 2.81-5.41v-8.9c0-3.13-.29-5.19-2.74-5.19-2.01.02-2.69 1.53-2.69 3.95m15.97-18.67h5.76V21.6c.96-1.83 2.75-2.9 5.13-2.9 4.3 0 6.06 3.52 6.06 8.74v9.99c0 6.59-1.14 11.06-6.77 11.06-2.81 0-4.07-1.38-4.78-2.99-.05 1.08-.1 1.81-.21 2.56H189c.11-1.97.06-4.53.06-7.45V9.12zm11.18 29.38V28.36c0-2.72-.43-4.5-2.52-4.5-2.32 0-2.92 1.85-2.92 5.15v9.59c0 3.21.79 4.74 2.75 4.74 1.75-.01 2.69-1.49 2.69-4.84m26.15-10.48v11.11c0 6.19-3.08 9.37-8.53 9.37-5.63 0-8.41-3.25-8.41-9.34V27.78c0-6.26 3.56-9.09 8.58-9.09 5.23.01 8.36 3.22 8.36 9.33m-11.18-.33v11.68c0 2.34.71 4.04 2.76 4.04 1.92 0 2.67-1.42 2.67-4.14V27.64c0-2.23-.6-3.85-2.71-3.85-1.89 0-2.72 1.35-2.72 3.9m12.93-8.55h3.07V12.2h5.75v6.94h3.63v5.05h-3.63v17.1c0 1.37.19 2.46 1.93 2.46.51 0 1.26-.06 1.57-.17v4.34c-.97.47-2.43.57-3.51.57-3.61 0-5.74-1.17-5.74-6.17V24.19h-3.07zm15.44 0h5.76v28.91h-5.76zm.05-10.02h5.76v6.15h-5.76zm25.7 29.34v.39c0 5.22-1.32 9.66-8.05 9.66-6.67 0-7.88-4.46-7.88-10.44v-9.92c0-4.72 1.56-9.45 8.15-9.45 7.08 0 7.78 5.12 7.78 8.7v1.08h-5.66v-1.22c0-2.22-.36-3.72-2.22-3.72-1.7 0-2.29 1.32-2.29 3.76v12.53c0 2 .37 3.82 2.27 3.82 1.85 0 2.23-1.47 2.23-3.82v-1.37zm8.29.55v1.32c0 1.78.5 3.33 2.34 3.33 1.56 0 2.23-.95 2.23-2.88 0-1.87-.53-3.16-4.03-5.42-3.98-2.56-5.89-4.65-5.89-8.79 0-4.89 2.63-7.88 7.66-7.88 5.47 0 7.64 3.01 7.64 8.31v1.16H282v-1.78c0-2.01-.68-2.84-2.04-2.84-1.42 0-1.98 1.03-1.98 2.56 0 1.62.54 2.36 3.17 4.04 5.06 3.22 6.84 5.26 6.84 10 0 5.54-2.78 8.36-8.21 8.36-6.5 0-7.99-4.08-7.99-8.21v-1.28zM34.18 43.89H14.91V14.91h19.27V0H0v58.8h34.18zm0 0H58.8V14.91H34.18l9.36 14.49z"/></svg>