<svg xmlns="http://www.w3.org/2000/svg" fill="none" aria-label="Postman's logo" class="undefined SponsorsItem_SponsorsItemImage--gold__inAF2" style="--height-mobile:34px;--height-desktop:38px" viewBox="0 0 266 82"><path fill="currentColor" d="m24.189 63.644-7.132-.486c-.08 0-.121-.04-.162-.08-.12-.08-.12-.281 0-.363l3.183-3.189zM42.36 47.942c-4.23 3.672-9.991 7.387-17.123 10.978a.73.73 0 0 0-.402.848l.684 2.905c.121.202.04.444-.16.565-.202.121-.444.04-.565-.161l-.284-.282-3.849-3.855 12.602-12.63.072-.017 6.086-1.295zm13.917-17.749c-.445 4.536-6.791 10.922-13.333 17.164l-2.841-2.848L55.86 30.668l.12-.121q.163-.167.297-.354M37.185 42.762l1.51 1.548-4.352.928 2.655-2.661zm15.492-15.888c.756-.619 1.831-.649 2.582-.096l-.004.056c.379.445.666.967.845 1.52a2.02 2.02 0 0 1-.723 1.709L39.582 43.947l-1.975-1.979 14.91-14.973c.08-.04.12-.08.16-.12M36.156 41.766l-6.648 1.454c-.12.04-.242 0-.283-.12-.08-.122-.04-.243.04-.324l3.949-3.955zm-2.317-3.53c14.706-14.73 17.348-14.87 20.095-12.612a2.87 2.87 0 0 0-2.022.846l-14.91 14.934zM59.528 15.21c1.449 0 2.818.484 3.906 1.412l-5.398 5.41a.38.38 0 0 0-.12.282.38.38 0 0 0 .119.283l.256.254 3.95 3.957a5.8 5.8 0 0 1-2.674.632 6 6 0 0 1-3.737-1.243 5 5 0 0 0-.213-.211.4.4 0 0 0-.165-.102 6.1 6.1 0 0 1-2.01-4.539c-.04-3.39 2.7-6.135 6.086-6.135"/><path fill="currentColor" fill-rule="evenodd" d="M64.04 17.187c2.217 2.421 2.096 6.175-.201 8.476a5.3 5.3 0 0 1-.887.726l-4.07-4.075.05-.051zm.162 3.39c-.081-.242-.364-.362-.605-.282-.242.081-.362.362-.282.605 0 .04.04.08.04.121.242.485.162 1.09-.16 1.534a.49.49 0 0 0 .039.646.453.453 0 0 0 .645-.08c.605-.768.726-1.737.323-2.543" clip-rule="evenodd"/><path fill="currentColor" fill-rule="evenodd" d="M.33 35.204C3.15 13.127 23.419-2.496 45.46.33s37.636 23.047 34.815 45.166c-2.861 22.118-23.047 37.74-45.13 34.913C13.104 77.544-2.491 57.283.33 35.204M59.528 14.36a6.93 6.93 0 0 0-4.901 2.033 6.95 6.95 0 0 0-1.406 7.783c-2.834-1.518-6.69.175-20.289 13.796a.4.4 0 0 0-.051.06l-.03.021-4.11 4.116a1.1 1.1 0 0 0-.321.768c0 .605.443 1.089 1.048 1.089.08 0 .16-.04.24-.04l6.067-1.313-2.888 2.892L19.984 58.53a.4.4 0 0 0-.187.108l-3.465 3.472c-.201.161-.283.404-.323.647-.042.604.362 1.128.966 1.169l8.262.565q.24 0 .361-.242a.36.36 0 0 0-.006-.348q.065-.025.127-.057c.483-.282.726-.847.605-1.37l-.684-2.866c7.213-3.593 13.015-7.346 17.285-11.1l.283-.242a.4.4 0 0 0 .12-.12c8.733-8.272 13.78-13.94 13.86-18.406a4.9 4.9 0 0 0-.38-2.048l-.003-.006c.852.365 1.778.56 2.723.56 1.2 0 2.398-.339 3.42-.938.044-.013.114-.04.206-.07a6.6 6.6 0 0 0 1.33-1.05c2.658-2.744 2.658-7.104-.041-9.809l-.12-.08a6.9 6.9 0 0 0-4.795-1.938" clip-rule="evenodd"/><path fill="currentColor" d="M152.482 27.494q2.116 0 4.111.605c1.29.444 1.975 1.01 1.975 1.696 0 .363-.121.727-.363 1.05a1.04 1.04 0 0 1-.368.402 1.03 1.03 0 0 1-.519.162 13 13 0 0 1-1.571-.605 7.3 7.3 0 0 0-3.225-.645c-1.167-.04-2.376.242-3.384.847a3.02 3.02 0 0 0-1.289 2.745c-.041 1.01.362 1.977 1.128 2.624.847.685 1.814 1.25 2.862 1.573 1.127.404 2.255.848 3.384 1.373a7.56 7.56 0 0 1 2.821 2.463 7.74 7.74 0 0 1 1.167 4.318c0 2.381-.684 4.197-2.094 5.408a7.82 7.82 0 0 1-5.52 1.816 10.15 10.15 0 0 1-5.199-1.291c-1.45-.969-2.175-1.817-2.175-2.665 0-.404.161-.766.403-1.089.201-.282.482-.484.845-.525.322.04.604.203.806.445.322.282.645.605 1.008.967a4.6 4.6 0 0 0 1.652.97c.806.323 1.693.443 2.539.443a5.3 5.3 0 0 0 3.545-1.09 4.05 4.05 0 0 0 1.29-3.23 4.22 4.22 0 0 0-1.169-3.106 7.9 7.9 0 0 0-2.861-1.817 72 72 0 0 1-3.384-1.33 7.24 7.24 0 0 1-2.862-2.181c-.806-1.09-1.248-2.423-1.167-3.794a6.8 6.8 0 0 1 .684-3.188 4.7 4.7 0 0 1 1.853-2.02 10.6 10.6 0 0 1 2.419-1.008 12 12 0 0 1 2.658-.323"/><path fill="currentColor" fill-rule="evenodd" d="M126.412 27.577a9.06 9.06 0 0 1 5.439 1.815c1.371 1.212 2.056 3.15 2.056 5.732v10.454c0 2.624-.685 4.52-2.056 5.731a8.935 8.935 0 0 1-10.879 0c-1.33-1.21-2.015-3.107-2.015-5.731V35.123c0-2.623.685-4.52 2.015-5.73a9.06 9.06 0 0 1 5.44-1.817m.04 2.583c-3.022 0-4.512 1.614-4.512 4.923l-.041 10.495c0 3.269 1.492 4.924 4.553 4.924a4.57 4.57 0 0 0 3.386-1.21c.886-1.01 1.288-2.341 1.207-3.714V35.083c.121-1.33-.321-2.663-1.207-3.712a4.57 4.57 0 0 0-3.386-1.211m104.968-2.585c.967 0 1.572.324 1.773 1.01l7.132 23.006v.202c0 .364-.242.686-.564.848a2 2 0 0 1-1.29.323 1.004 1.004 0 0 1-1.048-.646l-1.53-5.085h-9.107l-1.531 5.085c-.121.444-.605.727-1.048.686a2.1 2.1 0 0 1-1.169-.363.93.93 0 0 1-.564-.888.7.7 0 0 1 .081-.282l7.091-22.884c.202-.687.807-1.012 1.774-1.012m-3.908 17.236h7.777l-3.869-12.997z" clip-rule="evenodd"/><path fill="currentColor" d="M251.975 27.546a2.1 2.1 0 0 1 1.083.436c.403.404.766.888.967 1.413l8.664 16.953v-17.8c0-.324.161-.606.443-.728a2.08 2.08 0 0 1 2.054 0 .85.85 0 0 1 .444.727v23.37a.87.87 0 0 1-.444.767 1.8 1.8 0 0 1-1.007.282 2.05 2.05 0 0 1-1.812-1.332L253.26 34.16v17.759a.92.92 0 0 1-.403.766 2.08 2.08 0 0 1-2.056 0 .87.87 0 0 1-.443-.766V28.544c0-.687.483-1.01 1.451-1.01zm-56.942.032a.8.8 0 0 1 .444-.002c.927 0 1.692.607 2.337 1.858l5.44 10.455 5.48-10.455c.685-1.21 1.45-1.857 2.337-1.858.685-.12 1.33.364 1.451 1.05.04.118.04.246 0 .364v22.886a.86.86 0 0 1-.443.766 2.08 2.08 0 0 1-2.056 0 .87.87 0 0 1-.443-.766V33.67l-5.238 9.85c-.161.484-.606.847-1.129.847a1.26 1.26 0 0 1-1.088-.847l-5.238-10.05v18.405a.87.87 0 0 1-.443.766c-.285.2-.62.313-.967.323-.363 0-.726-.08-1.008-.282a.75.75 0 0 1-.373-.3.75.75 0 0 1-.11-.468V29.031c-.12-.687.362-1.332 1.047-1.453m-12.007-.042c.322 0 .605.12.766.403.201.242.282.565.282.888s-.081.687-.282.97c-.161.282-.444.402-.766.402h-5.52v21.715a.87.87 0 0 1-.443.768 2.08 2.08 0 0 1-2.056 0 .87.87 0 0 1-.443-.768V30.198h-5.601c-.322 0-.604-.12-.766-.403a1.64 1.64 0 0 1-.322-.97c0-.322.081-.645.282-.888.161-.282.443-.402.766-.402z"/><path fill="currentColor" fill-rule="evenodd" d="M101.43 27.535a7.86 7.86 0 0 1 5.359 1.816c1.33 1.21 2.014 3.108 2.014 5.69v.324c0 2.583-.685 4.521-2.055 5.732-1.531 1.25-3.464 1.936-5.44 1.816h-4.674v9a.87.87 0 0 1-.442.767 2.08 2.08 0 0 1-2.055 0 .87.87 0 0 1-.444-.767v-23.37a1 1 0 0 1 .323-.725c.242-.202.524-.323.846-.282zm-.122 2.664h-4.674l-.04 10.293h4.715a4.4 4.4 0 0 0 3.384-1.251 4.94 4.94 0 0 0 1.209-3.713v-.404c.121-1.331-.322-2.664-1.209-3.714a4.58 4.58 0 0 0-3.385-1.21" clip-rule="evenodd"/></svg>